<?xml version="1.0" encoding="utf-8"?>
<!-- Generator: Adobe Illustrator 23.0.3, SVG Export Plug-In . SVG Version: 6.00 Build 0)  -->
<svg version="1.1" id="图层_1" xmlns="http://www.w3.org/2000/svg" xmlns:xlink="http://www.w3.org/1999/xlink" x="0px" y="0px"
	 viewBox="0 0 240 240" style="enable-background:new 0 0 240 240;" xml:space="preserve">
<style type="text/css">
	.st0{fill-rule:evenodd;clip-rule:evenodd;fill:#BEBFC4;}
	.st1{fill:#BEBFC4;}
</style>
<g id="组_6" transform="translate(-96 -36)">
	<path id="路径_194" class="st0" d="M184.6,153.7c0.2-1.3,0.9-2.4,1.9-3.1c1-0.8,1.6-2.1,1.6-3.4c-0.1-2.5-2.1-4.5-4.6-4.4
		c-2.4,0.1-4.3,2-4.4,4.4c0,1.3,0.6,2.6,1.6,3.4c1.1,0.7,1.8,1.8,1.9,3.1v4.7c-0.2,1.3-0.9,2.4-1.9,3.1c-1,0.8-1.6,2.1-1.6,3.4
		c0.1,2.5,2.1,4.5,4.6,4.4c2.4-0.1,4.3-2,4.4-4.4c0-1.3-0.6-2.6-1.6-3.4c-1.1-0.7-1.8-1.8-1.9-3.1V153.7z"/>
	<path id="路径_195" class="st1" d="M124.9,142.7c-0.4,0-0.8,0.4-0.8,0.8V158c0,3.3-1.9,5.6-5.2,5.6c-3.3,0-5.3-2.3-5.3-5.6v-14.5
		c0-0.4-0.4-0.8-0.8-0.8h-4.6c-0.4,0-0.8,0.4-0.8,0.8v14.6c0,6.5,4.6,11,11.5,11c6.9,0,11.4-4.4,11.4-11v-14.6
		c0-0.4-0.4-0.8-0.8-0.8H124.9z"/>
	<path id="路径_196" class="st1" d="M147.6,142.7c0.4,0,0.8,0.4,0.8,0.8v14.3c0,0.3,0.2,0.5,0.5,0.5c0.2,0,0.3-0.1,0.4-0.2
		l10.4-15c0.2-0.2,0.4-0.3,0.7-0.3h5.9c0.4,0,0.8,0.4,0.8,0.8v24.4c0,0.4-0.4,0.8-0.8,0.8h-4.6c-0.4,0-0.8-0.3-0.8-0.8c0,0,0,0,0,0
		v-14.6c0-0.3-0.2-0.5-0.5-0.5c-0.2,0-0.3,0.1-0.4,0.2l-10.4,15.3c-0.1,0.2-0.4,0.3-0.6,0.3H143c-0.4,0-0.8-0.4-0.8-0.8v-24.4
		c0-0.4,0.4-0.8,0.8-0.8L147.6,142.7z"/>
	<path id="路径_197" class="st1" d="M219.1,142.7c-0.4,0-0.8,0.4-0.8,0.8v14.3c0,0.3-0.2,0.5-0.5,0.5c-0.2,0-0.3-0.1-0.4-0.2
		l-10.4-15c-0.2-0.2-0.4-0.3-0.7-0.3h-5.9c-0.4,0-0.8,0.4-0.8,0.8v24.4c0,0.4,0.4,0.8,0.8,0.8h4.6c0.4,0,0.8-0.4,0.8-0.8v-14.6
		c0-0.3,0.2-0.5,0.5-0.5c0.2,0,0.3,0.1,0.4,0.2l10.4,15.3c0.1,0.2,0.4,0.3,0.7,0.3h5.9c0.4,0,0.8-0.4,0.8-0.8v-24.4
		c0-0.4-0.4-0.8-0.8-0.8L219.1,142.7z"/>
	<path id="路径_198" class="st1" d="M255,147.9c0.4,0,0.8-0.4,0.8-0.8v-3.6c0-0.4-0.4-0.8-0.8-0.8h-17.6c-0.4,0-0.8,0.4-0.8,0.8
		v24.4c0,0.4,0.4,0.8,0.8,0.8H255c0.4,0,0.8-0.4,0.8-0.8v-3.6c0-0.4-0.4-0.8-0.8-0.8h-11.4c-0.4,0-0.8-0.3-0.8-0.8c0,0,0,0,0,0v-4.3
		c0-0.4,0.3-0.8,0.8-0.8c0,0,0,0,0,0h10.8c0.4,0,0.8-0.4,0.8-0.8v-3.2c0-0.4-0.4-0.8-0.8-0.8h-10.8c-0.4,0-0.8-0.3-0.8-0.8
		c0,0,0,0,0,0v-3.4c0-0.4,0.3-0.8,0.8-0.8c0,0,0,0,0,0H255z"/>
	<path id="路径_199" class="st1" d="M286.4,147.9c0.4,0,0.8-0.4,0.8-0.8v-3.6c0-0.4-0.4-0.8-0.8-0.8h-17.6c-0.4,0-0.8,0.4-0.8,0.8
		v24.4c0,0.4,0.4,0.8,0.8,0.8h17.6c0.4,0,0.8-0.4,0.8-0.8v-3.6c0-0.4-0.4-0.8-0.8-0.8H275c-0.4,0-0.8-0.3-0.8-0.8c0,0,0,0,0,0v-4.3
		c0-0.4,0.3-0.8,0.8-0.8c0,0,0,0,0,0h10.8c0.4,0,0.8-0.4,0.8-0.8v-3.2c0-0.4-0.4-0.8-0.8-0.8H275c-0.4,0-0.8-0.3-0.8-0.8
		c0,0,0,0,0,0v-3.4c0-0.4,0.3-0.8,0.8-0.8c0,0,0,0,0,0H286.4z"/>
	<path id="路径_200" class="st1" d="M310.5,142.7h-10.2c-0.4,0-0.8,0.4-0.8,0.8v24.4c0,0.4,0.4,0.8,0.8,0.8h10.2
		c8,0,14.1-5.5,14.1-13C324.5,148.3,318.5,142.7,310.5,142.7z M310.6,163.4h-4c-0.4,0-0.8-0.4-0.8-0.8v-13.7c0-0.4,0.4-0.8,0.8-0.8
		h4c4.2,0.1,7.6,3.5,7.6,7.7C318.1,160,314.8,163.3,310.6,163.4L310.6,163.4z"/>
</g>
</svg>
