<svg width="29" height="12" viewBox="0 0 29 12" fill="none" xmlns="http://www.w3.org/2000/svg">
<path d="M13.4258 1.34314C4.94228 -0.548111 1.0934 1.23897 0.457031 1.58435V3.61267L0.771484 3.85779L0.789062 3.87146L0.791016 3.89294L0.796875 3.96814C0.798475 3.98993 0.884979 5.11633 1.09473 6.35779C1.19964 6.97868 1.33515 7.62796 1.50586 8.18103C1.67725 8.73618 1.88133 9.18612 2.11914 9.41931C2.59484 9.8853 3.32451 10.2199 4.11816 10.433C4.91086 10.6458 5.76267 10.7364 6.47754 10.7201C6.6046 10.7174 6.7446 10.7188 6.89355 10.7201C7.60961 10.7253 8.55603 10.7334 9.48242 10.2845C10.4064 9.83672 11.3176 8.9302 11.9512 7.09021L12.7793 4.54041C12.8216 4.41021 12.8225 4.26574 12.7822 4.13513C12.7182 3.92658 12.7437 3.69977 12.8516 3.51306C12.9603 3.32467 13.1414 3.19639 13.3496 3.16248C13.4214 3.15071 13.5003 3.14362 13.5869 3.14197H14.6123C14.6989 3.14362 14.7778 3.15071 14.8496 3.16248C15.0579 3.19639 15.2389 3.32467 15.3477 3.51306C15.4555 3.69981 15.4811 3.92669 15.417 4.13513C15.3767 4.26592 15.3777 4.41019 15.4199 4.54041L16.249 7.09216L16.3701 7.42615C16.9949 9.04249 17.8491 9.86553 18.7148 10.2855C19.6408 10.7346 20.5879 10.7265 21.3057 10.7201C21.3902 10.7193 21.472 10.7181 21.5498 10.7181C21.6092 10.7181 21.6668 10.719 21.7217 10.7201C22.4375 10.7385 23.2896 10.6474 24.082 10.434C24.8753 10.2203 25.6045 9.88522 26.0801 9.41931C26.3181 9.18598 26.5229 8.73544 26.6943 8.18005C26.865 7.62709 27.0006 6.97847 27.1055 6.35779C27.3152 5.11638 27.4007 3.98993 27.4023 3.96814L27.4082 3.89294L27.4102 3.87146L27.4277 3.85779L27.7422 3.61267V1.58533C27.104 1.24127 23.2405 -0.544193 14.7734 1.34314C14.3231 1.44372 13.8762 1.44372 13.4258 1.34314ZM28.1494 3.82947L28.1299 3.84412L27.8008 4.099C27.7726 4.43992 27.669 5.57453 27.4492 6.75427C27.3369 7.35719 27.1945 7.97401 27.0156 8.50232C26.8375 9.02858 26.6213 9.47521 26.3584 9.73279C25.834 10.2464 25.0462 10.6068 24.2061 10.8353C23.4701 11.0356 22.6897 11.1353 22.002 11.1478H21.3096C21.2146 11.1486 21.1146 11.1498 21.0117 11.1498C20.2444 11.1498 19.2741 11.0981 18.3369 10.5804C17.3982 10.0618 16.4993 9.07974 15.8643 7.23474V7.23376L15.0342 4.6781C14.9638 4.46111 14.9612 4.2216 15.0283 4.0033C15.0566 3.91146 15.046 3.8162 14.999 3.73474C14.9521 3.65361 14.8746 3.59961 14.7871 3.58533L14.6064 3.5697H13.5918L13.4121 3.58533C13.3246 3.59961 13.2471 3.65361 13.2002 3.73474C13.1532 3.81614 13.1427 3.91133 13.1709 4.0033C13.238 4.22138 13.2356 4.461 13.165 4.6781L12.3359 7.23083V7.23181C11.6579 9.20184 10.6795 10.1879 9.67383 10.6771C8.67038 11.1652 7.64638 11.1546 6.88965 11.1478H6.19727C5.50992 11.1356 4.72917 11.0356 3.99316 10.8353C3.15306 10.6066 2.36509 10.2463 1.84082 9.73279C1.57794 9.47521 1.36177 9.02858 1.18359 8.50232C1.00475 7.97401 0.862325 7.35719 0.75 6.75427C0.530219 5.57444 0.425672 4.43982 0.397461 4.099L0.0693359 3.84412L0.0498047 3.82947V1.33923L0.0722656 1.32458L0.145508 1.27673L0.379883 1.14294C1.33772 0.648455 5.23766 -0.919034 13.5107 0.925171C13.905 1.01295 14.2942 1.01295 14.6885 0.925171C24.1438 -1.18297 27.8869 1.16694 28.0537 1.27673L28.127 1.32458L28.1494 1.33923V3.82947Z" fill="#4A5565" stroke="#4A5565" stroke-width="0.1"/>
</svg>
