<svg width="16" height="26" viewBox="0 0 16 26" fill="none" xmlns="http://www.w3.org/2000/svg">
<path d="M8.63965 0.0501709C8.90837 0.0489991 9.1654 0.159426 9.35547 0.355835L9.42285 0.432983C9.56945 0.620013 9.64942 0.854293 9.64844 1.09705V4.83826H10.8145C11.5072 4.83942 12.0661 5.42161 12.0674 6.13806V6.63611H13.4258C13.8838 6.63611 14.3217 6.82405 14.6455 7.15955L14.6465 7.16052C14.9692 7.4971 15.1494 7.95184 15.1494 8.42615V23.3646C15.1494 23.8378 14.9682 24.2919 14.6445 24.6273C14.362 24.921 13.9904 25.1022 13.5957 25.142L13.4258 25.1498H1.77344C1.31648 25.1509 0.877478 24.9629 0.554688 24.6273C0.230933 24.293 0.0498408 23.8377 0.0498047 23.3646V8.42615C0.0487067 7.95171 0.230092 7.49608 0.552734 7.15955L0.679688 7.04041C0.986795 6.77963 1.37274 6.63513 1.77344 6.63611H3.12793V6.13806C3.13029 5.42047 3.68985 4.83826 4.38477 4.83826H5.55078V1.09705C5.54966 0.819519 5.65487 0.553345 5.84375 0.355835L5.91797 0.285522C6.09813 0.132914 6.32451 0.0491529 6.55957 0.0501709H8.63965ZM1.63379 6.96521C1.31167 6.9979 1.0089 7.14643 0.777344 7.38708C0.512597 7.66229 0.363334 8.03536 0.364258 8.42517V23.3646C0.364316 23.7535 0.513596 24.1266 0.77832 24.4008C1.04306 24.6748 1.40107 24.8286 1.77344 24.8275H13.4258C13.7982 24.8286 14.1571 24.6749 14.4219 24.4008C14.6865 24.1267 14.8359 23.7534 14.8359 23.3646V8.42517C14.8369 8.0355 14.6875 7.66227 14.4229 7.38708C14.1581 7.11184 13.7992 6.9573 13.4258 6.95837H1.77344L1.63379 6.96521ZM13.4004 10.6049C13.4885 10.6049 13.5574 10.6793 13.5576 10.766V18.6205C13.5576 18.7074 13.4886 18.7815 13.4004 18.7816H1.79883C1.75706 18.7815 1.71722 18.7638 1.68848 18.7357L1.68652 18.7338C1.65926 18.7039 1.6416 18.6624 1.6416 18.6205V10.766C1.64171 10.7228 1.65953 10.6833 1.68652 10.6537L1.6875 10.6527C1.7175 10.6217 1.75807 10.6049 1.79883 10.6049H13.4004ZM1.95605 18.4594H13.2432V10.9271H1.95605V18.4594ZM4.28906 5.16541C3.81612 5.21439 3.44332 5.63006 3.44141 6.13904V6.63611H11.7539V6.13806C11.7537 5.59666 11.3307 5.16052 10.8145 5.16052H4.38477L4.28906 5.16541ZM6.55957 0.372437C6.37566 0.371402 6.19809 0.44668 6.06836 0.582397C5.93742 0.718506 5.86334 0.903171 5.86426 1.09607V4.83826H9.33496V1.09607C9.33588 0.903162 9.26243 0.718221 9.13184 0.583374V0.582397C9.00097 0.446427 8.82438 0.371494 8.64062 0.372437H6.55957ZM7.59961 1.77185C7.95759 1.77185 8.24512 2.07349 8.24512 2.4408C8.24494 2.71 8.08806 2.95411 7.84766 3.05798C7.60566 3.16199 7.32784 3.10376 7.14355 2.91248C6.95963 2.72128 6.90383 2.43426 7.00293 2.18494C7.10221 1.93531 7.33761 1.77192 7.59961 1.77185ZM7.72559 2.12048C7.60265 2.06763 7.46113 2.09606 7.36621 2.1947C7.27096 2.29371 7.24216 2.44345 7.29395 2.57361C7.34565 2.70317 7.46708 2.78643 7.59961 2.7865C7.7798 2.7865 7.93043 2.63287 7.93066 2.4408C7.93066 2.29975 7.84873 2.17347 7.72559 2.12048Z" fill="#4A5565" stroke="#4A5565" stroke-width="0.1"/>
</svg>
