<svg width="12" height="28" viewBox="0 0 12 28" fill="none" xmlns="http://www.w3.org/2000/svg">
<path d="M8.96881 7.0229V6.79282C8.96881 6.45741 8.76923 6.16774 8.48094 6.03745C8.48787 6.01666 8.49203 5.99448 8.49203 5.97092V4.31463C8.49203 3.85724 8.11919 3.48443 7.66183 3.48443H7.57312V1.11712C7.75607 1.11851 7.8628 1.1199 7.86695 1.1199C7.92239 1.1199 7.97506 1.09911 8.01387 1.0603C8.05268 1.02149 8.07485 0.968822 8.07485 0.913382V0.206514C8.07485 0.0928626 7.98199 0 7.86834 0H4.38393H4.37838C4.28968 0.00277183 2.17326 0.0595984 0.967414 0.702716C0.91752 0.72905 0.880097 0.776174 0.86485 0.83023C0.849604 0.884283 0.85792 0.943882 0.888412 0.992392L1.24046 1.56897C1.27927 1.63134 1.3458 1.66738 1.41648 1.66738C1.44143 1.66738 1.46776 1.66322 1.49271 1.65213C1.50657 1.64659 2.82881 1.13239 4.37007 1.11714C4.43105 1.11714 4.49203 1.11575 4.5544 1.11575V3.48167H4.3174C3.86 3.48167 3.4872 3.85452 3.4872 4.31188V5.96955C3.4872 5.9945 3.49274 6.01945 3.50106 6.04162C3.22247 6.17607 3.02982 6.46158 3.02982 6.79007V7.02154C1.21415 8.31605 0 10.6598 0 12.8899V25.7048C0 26.4976 0.54053 27.174 1.31393 27.3486C2.38945 27.5925 3.96675 27.7173 6 27.7173C8.03467 27.7173 9.61062 27.5939 10.6861 27.3486C11.4595 27.1726 12 26.4962 12 25.7048V12.8899C12 10.6584 10.7858 8.31343 8.96879 7.0187L8.96881 7.0229ZM4.3686 0.706792C3.05468 0.719266 1.92093 1.06714 1.50789 1.21131L1.36236 0.972912C2.49472 0.472548 4.31454 0.415742 4.38938 0.414358H7.66452V0.705418C7.12676 0.702646 5.64513 0.694318 4.3686 0.706792ZM4.96874 1.11565C5.77957 1.11149 6.60009 1.11288 7.16141 1.11565V3.48434H4.96874V1.11426V1.11565ZM4.31872 3.89877H7.66316C7.89323 3.89877 8.08035 4.08588 8.08035 4.31596V5.96391H3.90166V4.31596C3.90166 4.08588 4.08863 3.89877 4.31872 3.89877ZM11.5882 25.709C11.5882 26.3078 11.1807 26.8178 10.5958 26.9509C9.55079 27.1893 8.00399 27.3099 6.0013 27.3099C3.9986 27.3099 2.4517 27.1893 1.40676 26.9509C0.823267 26.8178 0.414376 26.3078 0.414376 25.709V12.8941C0.414376 10.7569 1.59524 8.51033 3.35411 7.30288C3.40955 7.26407 3.4442 7.20032 3.4442 7.13241V6.79283C3.4442 6.56276 3.63131 6.37564 3.8614 6.37564H8.14014C8.37022 6.37564 8.55733 6.56275 8.55733 6.79283V7.12963C8.55733 7.19755 8.5906 7.2613 8.64743 7.30011C10.4076 8.50731 11.5899 10.754 11.5899 12.8927V25.7077L11.5882 25.709Z" fill="#4A5565"/>
</svg>
