<svg width="22" height="13" viewBox="0 0 22 13" fill="none" xmlns="http://www.w3.org/2000/svg">
<path d="M22 11.699V1.30101C22 0.583427 21.3834 0 20.625 0L1.375 0C0.616605 0 0 0.583427 0 1.30101L0 11.699C0 12.4166 0.616605 13 1.375 13L20.625 13C21.3834 13 22 12.4166 22 11.699ZM1.375 12.4796C0.919545 12.4796 0.55 12.1299 0.55 11.699L0.55 1.30101C0.55 0.870067 0.919545 0.520406 1.375 0.520406L20.625 0.520406C21.0805 0.520406 21.45 0.870067 21.45 1.30101V11.699C21.45 12.1299 21.0805 12.4796 20.625 12.4796L1.375 12.4796Z" fill="#4A5565"/>
</svg>
