<svg width="10" height="26" viewBox="0 0 10 26" fill="none" xmlns="http://www.w3.org/2000/svg">
<path d="M9.48561 15.8237H9.23821L9.2393 10.0963C9.2393 9.84233 9.03639 9.63585 8.78575 9.63585H8.20197L8.20306 1.52354C8.20197 1.49484 8.19546 1.46613 8.1857 1.43852C8.24104 1.11501 8.17051 0.782646 7.9893 0.511029C7.35564 -0.37672 5.51971 -0.079692 3.82267 1.18347V1.18457C3.09134 1.70576 2.47829 2.3804 2.02471 3.16326C1.7643 3.58395 1.65363 4.08303 1.71113 4.5766C1.69703 4.61083 1.68943 4.64837 1.68835 4.68702V9.66255L1.21635 9.66145C1.09591 9.66145 0.979807 9.70893 0.895185 9.79615C0.809466 9.88228 0.760636 9.99932 0.760636 10.1219V15.8239H0.513244H0.514329C0.233303 15.8272 0.00652772 16.0557 0 16.3406V25.4711C0 25.7615 0.228948 25.9967 0.514329 26H9.48676H9.48567C9.77103 25.9967 10 25.7615 10 25.4711V16.3406C9.99349 16.0557 9.76665 15.827 9.48561 15.8237ZM2.50011 3.42277C2.91352 2.7183 3.47016 2.11101 4.13312 1.64173C5.13573 0.901926 6.11119 0.559643 6.7861 0.559643C7.06713 0.528724 7.34707 0.633623 7.54132 0.842311C7.72795 1.10842 7.66936 1.56885 7.37748 2.10881C6.96298 2.81438 6.40526 3.42277 5.74229 3.89205C5.09777 4.38783 4.35883 4.74006 3.57217 4.92444C2.97757 5.03707 2.52727 4.95315 2.33846 4.69036C2.14966 4.42646 2.22233 3.95167 2.50011 3.42277ZM7.64451 2.73266V9.63599H2.22233V5.33406C2.48492 5.4776 2.78005 5.54937 3.07736 5.54054C3.27592 5.53833 3.47232 5.51735 3.66655 5.4776C4.53459 5.27885 5.34948 4.89349 6.05803 4.34693C6.67544 3.90746 7.21363 3.36089 7.64765 2.73374L7.64451 2.73266ZM1.31651 10.2013H1.90353C1.92089 10.2024 1.93825 10.2024 1.95561 10.2013C1.97298 10.2035 1.99142 10.2035 2.00878 10.2013H7.92568C7.94304 10.2035 7.9604 10.2035 7.97776 10.2013H8.68306L8.68415 15.8239H1.31671L1.31651 10.2013ZM9.44478 25.4346H0.555959V16.3892H9.44478V25.4346Z" fill="#4A5565"/>
</svg>
