<svg width="9" height="22" viewBox="0 0 9 22" fill="none" xmlns="http://www.w3.org/2000/svg">
<path fill-rule="evenodd" clip-rule="evenodd" d="M2.93916 17.6386H2.65935C2.03248 17.6386 1.50783 17.1619 1.45269 16.5423L0.00121747 0.376569C-0.00685366 0.279087 0.0254311 0.184278 0.0913471 0.112168C0.157264 0.0400578 0.250084 0 0.348282 0H8.65084C8.75038 0 8.8459 0.0413944 8.91047 0.114841C8.97773 0.188284 9.00867 0.285766 8.99791 0.383248L7.18188 16.5678C7.11731 17.15 6.6411 17.596 6.06131 17.6361V18.886C6.06131 19.0515 5.94428 19.1904 5.78688 19.2238V21.6542C5.78688 21.8451 5.63084 22 5.43848 22H4.60309C3.83496 22 3.21212 21.3817 3.21212 20.6192V19.2238C3.05608 19.1904 2.93905 19.0515 2.93905 18.886L2.93916 17.6386ZM2.65935 16.9456H5.97665C6.23897 16.9456 6.45957 16.7506 6.48919 16.4916L8.26217 0.691617H0.728951L2.14682 16.4796C2.17103 16.744 2.39299 16.9456 2.65935 16.9456ZM5.36325 18.54V17.6387H3.636V18.54H5.36325ZM3.90906 19.2331V20.6192C3.90906 20.9997 4.2198 21.3069 4.60318 21.3069H5.09016V19.2331H3.90906Z" fill="#6A7282"/>
</svg>
